<svg width="136" height="136" xmlns="http://www.w3.org/2000/svg" xmlns:xlink="http://www.w3.org/1999/xlink" overflow="hidden"><defs><clipPath id="clip0"><rect x="245" y="241" width="136" height="136"/></clipPath><clipPath id="clip1"><rect x="246" y="242" width="135" height="135"/></clipPath><clipPath id="clip2"><rect x="246" y="242" width="135" height="135"/></clipPath><clipPath id="clip3"><rect x="246" y="242" width="135" height="135"/></clipPath></defs><g clip-path="url(#clip0)" transform="translate(-245 -241)"><g clip-path="url(#clip1)"><g clip-path="url(#clip2)"><g clip-path="url(#clip3)"><path d="M374.834 259.473 306.307 252.239 304.16 272.587 252.093 283.344 268.885 364.6 336.366 350.654 333.87 338.578 366.123 341.984ZM271.069 361.275 255.422 285.533 317.393 272.725 333.047 348.469ZM351.355 300.219C351.062 299.862 350.737 299.533 350.385 299.234 353.418 297.274 354.288 293.226 352.327 290.193 350.367 287.16 346.319 286.29 343.286 288.25 340.253 290.21 339.383 294.258 341.343 297.292 341.568 297.64 341.826 297.966 342.113 298.265 339.856 299.417 338.334 301.63 338.066 304.149L337.081 313.473 334.691 313.221 336.121 299.672C336.439 296.627 335.163 293.633 332.746 291.755 336.482 289.692 337.838 284.992 335.776 281.257 333.714 277.521 329.014 276.165 325.278 278.227 323.897 278.99 322.782 280.157 322.084 281.572L319.571 269.411 315.722 270.207 316.312 264.608 362.463 269.481 357.592 315.63 351.999 315.039 352.983 305.716C353.195 303.74 352.609 301.761 351.355 300.219ZM346.433 297.481C344.393 297.268 342.911 295.442 343.124 293.402 343.336 291.362 345.163 289.88 347.203 290.093 349.243 290.306 350.724 292.132 350.512 294.172 350.512 294.174 350.511 294.176 350.511 294.177 350.29 296.213 348.465 297.686 346.429 297.474ZM350.185 305.422 349.2 314.745 339.877 313.761 340.861 304.438C341.116 301.862 343.411 299.98 345.987 300.235 348.563 300.49 350.445 302.785 350.19 305.361 350.188 305.381 350.186 305.401 350.183 305.422ZM324.521 293.342C325.569 292.796 326.755 292.574 327.93 292.704 331.262 293.056 333.679 296.042 333.328 299.375L331.892 312.917 328.492 312.557ZM324.099 284.5C324.363 281.999 326.468 280.099 328.983 280.094 329.159 280.094 329.335 280.104 329.51 280.122 332.213 280.407 334.174 282.83 333.888 285.533 333.603 288.237 331.18 290.197 328.477 289.911 325.774 289.626 323.814 287.203 324.099 284.5 324.099 284.5 324.099 284.5 324.099 284.5ZM333.275 335.687 329.09 315.45 348.907 317.541 350.685 317.729 360.095 318.722 365.557 266.972 313.807 261.51 312.822 270.792 307.041 271.985 308.809 255.331 371.74 261.976 363.62 338.891Z" fill="#000000" fill-rule="nonzero" fill-opacity="1"/><path d="M262.065 289.902 272.594 340.859 323.549 330.331 313.019 279.372ZM274.779 337.534 265.388 292.088 310.828 282.695 320.22 328.143Z" fill="#000000" fill-rule="nonzero" fill-opacity="1"/><path d="M297.87 295.454C296.237 295.394 292.517 295.902 290.317 300.967 286.296 297.193 282.69 298.204 281.205 298.897 277.73 300.647 275.788 304.446 276.405 308.288 278.233 317.147 293.753 324.703 294.414 325.022 294.986 325.297 295.671 325.155 296.086 324.676 296.566 324.122 307.817 311.036 305.988 302.176 305.034 298.407 301.75 295.689 297.87 295.454ZM294.656 321.997C289.98 319.569 280.355 313.505 279.159 307.718 278.784 305.15 280.084 302.628 282.394 301.445 282.957 301.179 283.571 301.04 284.194 301.039 286.022 301.039 287.944 302.231 289.767 304.529 290.249 305.138 291.134 305.24 291.742 304.758 291.978 304.571 292.148 304.313 292.226 304.023 293.251 300.234 295.199 298.191 297.784 298.265 300.374 298.439 302.566 300.242 303.234 302.75 304.428 308.53 297.995 317.912 294.656 321.997Z" fill="#000000" fill-rule="nonzero" fill-opacity="1"/></g></g></g></g></svg>