<svg width="216" height="215" xmlns="http://www.w3.org/2000/svg" xmlns:xlink="http://www.w3.org/1999/xlink" overflow="hidden"><defs><clipPath id="clip0"><rect x="-16" y="741" width="216" height="215"/></clipPath><clipPath id="clip1"><rect x="-15" y="742" width="215" height="214"/></clipPath><clipPath id="clip2"><rect x="-15" y="742" width="216" height="214"/></clipPath><clipPath id="clip3"><rect x="-15" y="742" width="216" height="214"/></clipPath></defs><g clip-path="url(#clip0)" transform="translate(16 -741)"><g clip-path="url(#clip1)"><g clip-path="url(#clip2)"><g clip-path="url(#clip3)"><path d="M171.646 77.575C151.583 55.7292 129.96 70.6646 113.465 74.4542 113.019 69.1042 111.681 64.2 110.121 59.5188 117.031 58.85 127.285 56.6208 134.419 49.2646 146.01 37.6729 144.896 18.0563 144.896 18.0563 144.896 18.0563 125.056 16.9417 113.688 28.5333 108.338 33.8833 105.663 41.0167 104.325 47.2583 94.5167 30.7625 80.25 22.0688 79.3583 21.4L72.4479 32.7687C72.6708 32.9917 96.7458 47.9271 100.09 74.2313 83.8167 70.2188 61.9708 55.7292 42.3542 77.3521 20.7313 101.204 39.2333 223.363 107.223 189.702 174.99 223.585 193.269 101.427 171.646 77.575Z" fill="#E2A77B" fill-rule="nonzero" fill-opacity="0.65" transform="matrix(1.00467 0 0 1 -15 742)"/></g></g></g></g></svg>