<svg width="117" height="117" xmlns="http://www.w3.org/2000/svg" xmlns:xlink="http://www.w3.org/1999/xlink" overflow="hidden"><defs><clipPath id="clip0"><rect x="652" y="244" width="117" height="117"/></clipPath><clipPath id="clip1"><rect x="653" y="244" width="116" height="117"/></clipPath><clipPath id="clip2"><rect x="653" y="244" width="116" height="117"/></clipPath><clipPath id="clip3"><rect x="653" y="244" width="116" height="117"/></clipPath></defs><g clip-path="url(#clip0)" transform="translate(-652 -244)"><g clip-path="url(#clip1)"><g clip-path="url(#clip2)"><g clip-path="url(#clip3)"><path d="M104.923 19.5049 96.425 10.9765C94.5389 9.08759 91.4786 9.08534 89.5897 10.9715 89.588 10.9732 89.5863 10.9748 89.5846 10.9765L16.9638 83.5973 9.68117 106.333 32.3423 98.9697 104.92 26.3332C106.803 24.4475 106.805 21.3927 104.923 19.5049ZM81.0453 22.9269 92.98 34.8628 90.4003 37.445 78.4631 25.5079ZM30.9696 96.8757 17.5269 101.243 14.7417 98.4562 19.0627 84.9615C21.5095 83.0379 25.8003 83.8837 28.9263 87.0085 32.0522 90.1332 32.8981 94.43 30.9696 96.8757ZM30.6337 85.2999C28.4735 83.0479 25.5337 81.7077 22.417 81.554L76.7545 27.2165 88.6917 39.15 34.3855 93.5069C34.2269 90.393 32.8848 87.4572 30.6337 85.2999ZM103.21 24.6246 94.6886 33.153 82.7539 21.2183 91.292 12.679C92.2349 11.7344 93.7651 11.733 94.7097 12.6759 94.7107 12.677 94.7117 12.678 94.7128 12.679L103.212 21.2075C104.155 22.1519 104.154 23.6816 103.21 24.6246Z" fill="#000000" fill-rule="nonzero" fill-opacity="1" transform="matrix(1 0 0 1.00862 653 244)"/></g></g></g></g></svg>