<svg width="142" height="116" xmlns="http://www.w3.org/2000/svg" xmlns:xlink="http://www.w3.org/1999/xlink" overflow="hidden"><defs><clipPath id="clip0"><rect x="40" y="244" width="142" height="116"/></clipPath><clipPath id="clip1"><rect x="41" y="244" width="141" height="116"/></clipPath><clipPath id="clip2"><rect x="41" y="244" width="141" height="116"/></clipPath><clipPath id="clip3"><rect x="41" y="244" width="141" height="116"/></clipPath></defs><g clip-path="url(#clip0)" transform="translate(-40 -244)"><g clip-path="url(#clip1)"><g clip-path="url(#clip2)"><g clip-path="url(#clip3)"><path d="M7.93513 61.5465 15.776 69.3849 21.75 63.7275 21.75 102.696 51.9583 102.708 51.9583 72.4915 64.0417 72.4915 64.0417 102.7 94.25 102.708 94.25 63.6792 100.254 69.3583 108.065 61.5489 58 13.9853ZM91.8333 100.292 66.4583 100.281 66.4583 70.0725 49.5417 70.0725 49.5417 100.292 24.1667 100.281 24.1667 61.4389 58 29.3988 91.8333 61.393ZM100.207 65.9859 58 26.071 15.8207 66.0137 11.3982 61.5912 58 17.319 104.602 61.59Z" fill="#000000" fill-rule="nonzero" fill-opacity="1" transform="matrix(1.21552 0 0 1 41 244)"/><path d="M88.8053 33.843C90.6927 27.2097 95.3405 21.708 101.565 18.7388 95.3382 15.7678 90.69 10.262 88.8053 3.625 86.9172 10.2583 82.269 15.7601 76.044 18.7292 82.271 21.7007 86.9194 27.2062 88.8053 33.843ZM88.8053 9.7875C90.7081 13.3325 93.4014 16.392 96.6763 18.7292 93.4019 21.0669 90.7087 24.1263 88.8053 27.6708 86.9009 24.1264 84.2076 21.0672 80.933 18.7292 84.2079 16.3916 86.9014 13.3321 88.8053 9.7875Z" fill="#000000" fill-rule="nonzero" fill-opacity="1" transform="matrix(1.21552 0 0 1 41 244)"/><path d="M105.746 29.0085C104.765 32.4578 102.349 35.3187 99.1123 36.8626 102.349 38.4063 104.766 41.2674 105.746 44.7168 106.726 41.267 109.144 38.4057 112.381 36.8626 109.144 35.3193 106.727 32.4581 105.746 29.0085ZM105.746 39.3337C105.101 38.4296 104.355 37.6014 103.524 36.865 104.355 36.128 105.101 35.2994 105.746 34.3952 106.392 35.2994 107.138 36.128 107.969 36.865 107.137 37.6014 106.392 38.4296 105.746 39.3337Z" fill="#000000" fill-rule="nonzero" fill-opacity="1" transform="matrix(1.21552 0 0 1 41 244)"/><path d="M16.785 39.8859C18.2122 34.8429 21.7437 30.6598 26.4758 28.4067 21.7471 26.1493 18.2171 21.968 16.785 16.9275 15.3526 21.9682 11.8221 26.1497 7.09292 28.4067 11.8221 30.6638 15.3526 34.8452 16.785 39.8859ZM16.785 22.771C18.0871 24.9407 19.7804 26.85 21.779 28.4019 19.7797 29.9548 18.0858 31.8653 16.7838 34.0363 15.4815 31.866 13.7878 29.9563 11.7885 28.4043 13.7879 26.8516 15.482 24.9416 16.785 22.771Z" fill="#000000" fill-rule="nonzero" fill-opacity="1" transform="matrix(1.21552 0 0 1 41 244)"/></g></g></g></g></svg>