<svg width="121" height="122" xmlns="http://www.w3.org/2000/svg" xmlns:xlink="http://www.w3.org/1999/xlink" overflow="hidden"><defs><clipPath id="clip0"><rect x="452" y="238" width="121" height="122"/></clipPath><clipPath id="clip1"><rect x="452" y="239" width="121" height="120"/></clipPath><clipPath id="clip2"><rect x="452" y="239" width="121" height="120"/></clipPath><clipPath id="clip3"><rect x="452" y="239" width="121" height="120"/></clipPath></defs><g clip-path="url(#clip0)" transform="translate(-452 -238)"><g clip-path="url(#clip1)"><g clip-path="url(#clip2)"><g clip-path="url(#clip3)"><path d="M102.5 68.6387 102.5 26.25 22.5 26.25 22.5 21.125C22.4938 15.6737 18.0763 11.2562 12.625 11.25L12.5 11.25C11.8096 11.25 11.25 11.8096 11.25 12.5 11.25 13.1904 11.8096 13.75 12.5 13.75L12.625 13.75C16.6964 13.7541 19.9959 17.0536 20 21.125L20 83.75C20.0058 88.3772 23.6134 92.2001 28.2325 92.4737 24.414 94.8307 23.2293 99.8369 25.5861 103.655 27.9431 107.474 32.9492 108.659 36.7677 106.302 40.5863 103.945 41.771 98.9386 39.4141 95.1201 38.7588 94.0584 37.8678 93.1619 36.81 92.5L83.185 92.5C79.3819 94.8818 78.2298 99.8955 80.6114 103.699 82.9931 107.502 88.0069 108.654 91.81 106.272 95.6131 103.89 96.7653 98.8766 94.3836 95.0736 93.7314 94.0321 92.8514 93.1522 91.81 92.5L101.25 92.5C101.94 92.5 102.5 91.9404 102.5 91.25 102.5 90.5596 101.94 90 101.25 90L28.75 90C25.2999 89.9959 22.5041 87.2001 22.5 83.75L22.5 76.1387ZM87.5 105C84.3934 105 81.875 102.482 81.875 99.375 81.875 96.2684 84.3934 93.75 87.5 93.75 90.6066 93.75 93.125 96.2684 93.125 99.375 93.1215 102.48 90.6051 104.996 87.5 105ZM32.5 105C29.3934 105 26.875 102.482 26.875 99.375 26.875 96.2684 29.3934 93.75 32.5 93.75 35.6066 93.75 38.125 96.2684 38.125 99.375 38.1215 102.48 35.6051 104.996 32.5 105ZM22.5 43.75 40 43.75 40 56.25 22.5 56.25ZM80 56.25 62.5 56.25 62.5 43.75 80 43.75ZM82.5 43.75 100 43.75 100 56.25 82.5 56.25ZM62.5 58.75 80 58.75 80 68.2363 62.5 69.875ZM60 70.1113 42.5 71.75 42.5 58.75 60 58.75ZM62.5 41.25 62.5 28.75 80 28.75 80 41.25ZM60 41.25 42.5 41.25 42.5 28.75 60 28.75ZM60 43.75 60 56.25 42.5 56.25 42.5 43.75ZM22.5 58.75 40 58.75 40 71.9863 22.5 73.625ZM82.5 68 82.5 58.75 100 58.75 100 66.3613ZM100 41.25 82.5 41.25 82.5 28.75 100 28.75ZM40 28.75 40 41.25 22.5 41.25 22.5 28.75Z" fill="#000000" fill-rule="nonzero" fill-opacity="1" transform="matrix(1.00833 0 0 1 452 239)"/></g></g></g></g></svg>